<svg width="353" height="274" viewBox="0 0 353 274" fill="none" xmlns="http://www.w3.org/2000/svg">
<g filter="url(#filter0_d)">
<path d="M196.6 70.6C197.933 68.2 199.867 66.6 202.4 65.8C204.933 65 208.067 64.6 211.8 64.6C215.667 64.6 218.733 64.9333 221 65.6C223.4 66.2667 225.133 67.0667 226.2 68C227.4 68.9333 228.267 70.3333 228.8 72.2C229.6 74.3333 230 77.7333 230 82.4V193.4C230 196.6 229.867 198.933 229.6 200.4C229.467 201.867 228.867 203.6 227.8 205.6C225.933 209.2 220.733 211 212.2 211C207 211 203.4 210.6 201.4 209.8C199.4 209 197.733 207.733 196.4 206C166.4 166 146.667 139.867 137.2 127.6V193.4C137.2 196.6 137.067 198.933 136.8 200.4C136.667 201.867 136.067 203.6 135 205.6C133.133 209.2 127.933 211 119.4 211C111.133 211 106.067 209.2 104.2 205.6C103.133 203.6 102.467 201.8 102.2 200.2C102.067 198.6 102 196.267 102 193.2V81.6C102 76.5333 102.6 72.8667 103.8 70.6C105.133 68.2 107.067 66.6 109.6 65.8C112.133 65 115.4 64.6 119.4 64.6C123.4 64.6 126.533 65 128.8 65.8C131.2 66.4667 132.867 67.2667 133.8 68.2C134.333 68.6 135.867 70.3333 138.4 73.4C166.533 111.667 185.333 136.933 194.8 149.2V81.6C194.8 76.5333 195.4 72.8667 196.6 70.6Z" fill="#CC3333"/>
</g>
<defs>
<filter id="filter0_d" x="98" y="64.6" width="136" height="154.4" filterUnits="userSpaceOnUse" color-interpolation-filters="sRGB">
<feFlood flood-opacity="0" result="BackgroundImageFix"/>
<feColorMatrix in="SourceAlpha" type="matrix" values="0 0 0 0 0 0 0 0 0 0 0 0 0 0 0 0 0 0 127 0"/>
<feOffset dy="4"/>
<feGaussianBlur stdDeviation="2"/>
<feColorMatrix type="matrix" values="0 0 0 0 0 0 0 0 0 0 0 0 0 0 0 0 0 0 0.25 0"/>
<feBlend mode="normal" in2="BackgroundImageFix" result="effect1_dropShadow"/>
<feBlend mode="normal" in="SourceGraphic" in2="effect1_dropShadow" result="shape"/>
</filter>
</defs>
</svg>
